# xmcd CD database file
#
# Track frame offsets:
#	150
#	18608
#	31660
#	43488
#	69010
#	91735
#	103155
#	116795
#	141033
#	154578
#	170357
#	185426
#	199001
#	217135
#	226106
#	244203
#	260435
#	273480
#	287256
#	305754
#	320985
#	334455
#
# Disc length: 4607 seconds
#
# Revision: 0
# Processed by: cddbd v1.5.2PL0 Copyright (c) Steve Scherf et al.
# Submitted via: CDex 1.51
#
DISCID=4611fd16
DTITLE=Various Artist - Lady Jazz (by La Première) [CD1)
DYEAR=2011
DGENRE=Jazz
TTITLE0=Sarah Vaughan - In A Sentimental Mood
TTITLE1=Aretha Franklin - Blue Holiday
TTITLE2=Lena Horne - The Boy From Ipanema
TTITLE3=China Moses -  Cry Me A River
TTITLE4=Diana Krall - Walk On By
TTITLE5=Julie London - Fly Me To The Moon (In Other Words)
TTITLE6=Dinah Washington - Lover Man
TTITLE7=Holly Cole - Calling You 
TTITLE8=Caecilie Norby - The Look Of Love
TTITLE9=Melody Gardot - Baby I'm A Fool 
TTITLE10=Norah Jones - Sunrise
TTITLE11=Laura Fygi - Bésame Mucho
TTITLE12=Elaine Elias - A Felicidade
TTITLE13=Nancy Wilson - Wives And Lovers
TTITLE14=Ella Fitzgerald - I Get A Kick Out Of You
TTITLE15=Nina Simone - My Baby Just Cares For Me
TTITLE16=Billie Holiday - That Ole Devil Called Love
TTITLE17=June Christy - The More I See You
TTITLE18=Marlena Shaw - Save The Children
TTITLE19=Dinah Shore with Andre Previn - It Had To Be You 
TTITLE20=Carmen McRae - Whatever Lola Wants
TTITLE21=Peggy Lee - Why Don't You Do Right (Get Me Some Money Too)
EXTD=YEAR: 2011
EXTT0=
EXTT1=
EXTT2=
EXTT3=
EXTT4=
EXTT5=
EXTT6=
EXTT7=
EXTT8=
EXTT9=
EXTT10=
EXTT11=
EXTT12=
EXTT13=
EXTT14=
EXTT15=
EXTT16=
EXTT17=
EXTT18=
EXTT19=
EXTT20=
EXTT21=
PLAYORDER=
